<mxfile host="app.diagrams.net" modified="2021-05-22T06:36:45.530Z" agent="5.0 (Windows NT 10.0; Win64; x64) AppleWebKit/537.36 (KHTML, like Gecko) Chrome/90.0.4430.212 Safari/537.36 Edg/90.0.818.62" etag="g02n8JGm4V2tfAOuDkHO" version="14.6.13" type="github">
  <diagram id="c6TN6icljUqLjAlKVf-J" name="Page-1">
    <mxGraphModel dx="774" dy="886" grid="1" gridSize="10" guides="1" tooltips="1" connect="1" arrows="1" fold="1" page="1" pageScale="1" pageWidth="827" pageHeight="1169" math="0" shadow="0">
      <root>
        <mxCell id="0" />
        <mxCell id="1" parent="0" />
        <mxCell id="S_C8KQHFjEvmfSv_XASp-1" value="MessageBoade" style="swimlane;fontStyle=1;align=center;verticalAlign=top;childLayout=stackLayout;horizontal=1;startSize=26;horizontalStack=0;resizeParent=1;resizeParentMax=0;resizeLast=0;collapsible=1;marginBottom=0;" vertex="1" parent="1">
          <mxGeometry x="90" y="420" width="160" height="200" as="geometry" />
        </mxCell>
        <mxCell id="S_C8KQHFjEvmfSv_XASp-2" value="-messageList: List&lt;String&gt;&#xa;-state: ILoginState&#xa;+LOGIN: ILoginState&#xa;+LOGOUT: ILoginState" style="text;strokeColor=none;fillColor=none;align=left;verticalAlign=top;spacingLeft=4;spacingRight=4;overflow=hidden;rotatable=0;points=[[0,0.5],[1,0.5]];portConstraint=eastwest;" vertex="1" parent="S_C8KQHFjEvmfSv_XASp-1">
          <mxGeometry y="26" width="160" height="70" as="geometry" />
        </mxCell>
        <mxCell id="S_C8KQHFjEvmfSv_XASp-3" value="" style="line;strokeWidth=1;fillColor=none;align=left;verticalAlign=middle;spacingTop=-1;spacingLeft=3;spacingRight=3;rotatable=0;labelPosition=right;points=[];portConstraint=eastwest;" vertex="1" parent="S_C8KQHFjEvmfSv_XASp-1">
          <mxGeometry y="96" width="160" height="8" as="geometry" />
        </mxCell>
        <mxCell id="S_C8KQHFjEvmfSv_XASp-4" value="+ MessageBoard(ILoginState)&#xa;+request(): void&#xa;+display(): void&#xa;+addMessage(String):void&#xa;+input():String&#xa;+setState(ILoginState):void" style="text;strokeColor=none;fillColor=none;align=left;verticalAlign=top;spacingLeft=4;spacingRight=4;overflow=hidden;rotatable=0;points=[[0,0.5],[1,0.5]];portConstraint=eastwest;" vertex="1" parent="S_C8KQHFjEvmfSv_XASp-1">
          <mxGeometry y="104" width="160" height="96" as="geometry" />
        </mxCell>
        <mxCell id="S_C8KQHFjEvmfSv_XASp-5" value="LogoutState" style="swimlane;fontStyle=1;align=center;verticalAlign=top;childLayout=stackLayout;horizontal=1;startSize=26;horizontalStack=0;resizeParent=1;resizeParentMax=0;resizeLast=0;collapsible=1;marginBottom=0;" vertex="1" parent="1">
          <mxGeometry x="360" y="575" width="180" height="90" as="geometry" />
        </mxCell>
        <mxCell id="S_C8KQHFjEvmfSv_XASp-21" value="" style="endArrow=block;endSize=16;endFill=0;html=1;" edge="1" parent="S_C8KQHFjEvmfSv_XASp-5" target="S_C8KQHFjEvmfSv_XASp-12">
          <mxGeometry width="160" relative="1" as="geometry">
            <mxPoint x="40" as="sourcePoint" />
            <mxPoint x="200" as="targetPoint" />
          </mxGeometry>
        </mxCell>
        <mxCell id="S_C8KQHFjEvmfSv_XASp-7" value="" style="line;strokeWidth=1;fillColor=none;align=left;verticalAlign=middle;spacingTop=-1;spacingLeft=3;spacingRight=3;rotatable=0;labelPosition=right;points=[];portConstraint=eastwest;" vertex="1" parent="S_C8KQHFjEvmfSv_XASp-5">
          <mxGeometry y="26" width="180" height="8" as="geometry" />
        </mxCell>
        <mxCell id="S_C8KQHFjEvmfSv_XASp-8" value="+ login(MessageBoard): void&#xa;+handle(MessageBoard): void&#xa;" style="text;strokeColor=none;fillColor=none;align=left;verticalAlign=top;spacingLeft=4;spacingRight=4;overflow=hidden;rotatable=0;points=[[0,0.5],[1,0.5]];portConstraint=eastwest;" vertex="1" parent="S_C8KQHFjEvmfSv_XASp-5">
          <mxGeometry y="34" width="180" height="56" as="geometry" />
        </mxCell>
        <mxCell id="S_C8KQHFjEvmfSv_XASp-9" value="ILoginState" style="swimlane;fontStyle=1;align=center;verticalAlign=top;childLayout=stackLayout;horizontal=1;startSize=26;horizontalStack=0;resizeParent=1;resizeParentMax=0;resizeLast=0;collapsible=1;marginBottom=0;" vertex="1" parent="1">
          <mxGeometry x="460" y="410" width="180" height="60" as="geometry">
            <mxRectangle x="310" y="370" width="100" height="26" as="alternateBounds" />
          </mxGeometry>
        </mxCell>
        <mxCell id="S_C8KQHFjEvmfSv_XASp-11" value="" style="line;strokeWidth=1;fillColor=none;align=left;verticalAlign=middle;spacingTop=-1;spacingLeft=3;spacingRight=3;rotatable=0;labelPosition=right;points=[];portConstraint=eastwest;" vertex="1" parent="S_C8KQHFjEvmfSv_XASp-9">
          <mxGeometry y="26" width="180" height="8" as="geometry" />
        </mxCell>
        <mxCell id="S_C8KQHFjEvmfSv_XASp-12" value="+ handle(MessageBoard): void" style="text;strokeColor=none;fillColor=none;align=left;verticalAlign=top;spacingLeft=4;spacingRight=4;overflow=hidden;rotatable=0;points=[[0,0.5],[1,0.5]];portConstraint=eastwest;" vertex="1" parent="S_C8KQHFjEvmfSv_XASp-9">
          <mxGeometry y="34" width="180" height="26" as="geometry" />
        </mxCell>
        <mxCell id="S_C8KQHFjEvmfSv_XASp-14" value="LoginState" style="swimlane;fontStyle=1;align=center;verticalAlign=top;childLayout=stackLayout;horizontal=1;startSize=26;horizontalStack=0;resizeParent=1;resizeParentMax=0;resizeLast=0;collapsible=1;marginBottom=0;" vertex="1" parent="1">
          <mxGeometry x="590" y="575" width="180" height="90" as="geometry" />
        </mxCell>
        <mxCell id="S_C8KQHFjEvmfSv_XASp-15" value="" style="line;strokeWidth=1;fillColor=none;align=left;verticalAlign=middle;spacingTop=-1;spacingLeft=3;spacingRight=3;rotatable=0;labelPosition=right;points=[];portConstraint=eastwest;" vertex="1" parent="S_C8KQHFjEvmfSv_XASp-14">
          <mxGeometry y="26" width="180" height="8" as="geometry" />
        </mxCell>
        <mxCell id="S_C8KQHFjEvmfSv_XASp-16" value="+handle(MessageBoard): void" style="text;strokeColor=none;fillColor=none;align=left;verticalAlign=top;spacingLeft=4;spacingRight=4;overflow=hidden;rotatable=0;points=[[0,0.5],[1,0.5]];portConstraint=eastwest;" vertex="1" parent="S_C8KQHFjEvmfSv_XASp-14">
          <mxGeometry y="34" width="180" height="56" as="geometry" />
        </mxCell>
        <mxCell id="S_C8KQHFjEvmfSv_XASp-23" value="" style="endArrow=block;endSize=16;endFill=0;html=1;exitX=0.5;exitY=0;exitDx=0;exitDy=0;entryX=0.606;entryY=1.038;entryDx=0;entryDy=0;entryPerimeter=0;" edge="1" parent="1" source="S_C8KQHFjEvmfSv_XASp-14" target="S_C8KQHFjEvmfSv_XASp-12">
          <mxGeometry width="160" relative="1" as="geometry">
            <mxPoint x="310" y="420" as="sourcePoint" />
            <mxPoint x="470" y="420" as="targetPoint" />
          </mxGeometry>
        </mxCell>
        <mxCell id="S_C8KQHFjEvmfSv_XASp-24" value="1" style="endArrow=open;html=1;endSize=12;startArrow=diamondThin;startSize=14;startFill=0;edgeStyle=orthogonalEdgeStyle;align=left;verticalAlign=bottom;exitX=1;exitY=0.5;exitDx=0;exitDy=0;exitPerimeter=0;entryX=0;entryY=0.5;entryDx=0;entryDy=0;" edge="1" parent="1" source="S_C8KQHFjEvmfSv_XASp-3" target="S_C8KQHFjEvmfSv_XASp-9">
          <mxGeometry x="0.2759" y="239" relative="1" as="geometry">
            <mxPoint x="310" y="420" as="sourcePoint" />
            <mxPoint x="470" y="420" as="targetPoint" />
            <mxPoint x="-115" y="29" as="offset" />
          </mxGeometry>
        </mxCell>
      </root>
    </mxGraphModel>
  </diagram>
</mxfile>
